# xmcd CD database file
#
# Track frame offsets:
#	150
#	18105
#	46255
#	60503
#	93242
#	117158
#	148018
#	168802
#	192887
#	216065
#	230895
#	253403
#	270484
#	298546
#	313883
#	327045
#
# Disc length: 4689 seconds
#
# Revision: 1
# Processed by: cddbd v1.5.2PL0 Copyright (c) Steve Scherf et al.
# Submitted via: CDex 1.51
#
DISCID=e3124f10
DTITLE=Peter Green - Rattlesnake Guitar
DYEAR=1900
DGENRE=Blues
TTITLE0=Black Magic Woman
TTITLE1=Love that Burns
TTITLE2=Stop Messin' Round
TTITLE3=Looking for Somebody
TTITLE4=Cryin' won't bring you back
TTITLE5=Leaving Town Blues
TTITLE6=If you be my baby
TTITLE7=Ramblin' Pony
TTITLE8=The Green Manalishi
TTITLE9=Hellhounds on my trail
TTITLE10=I loved another woman
TTITLE11=The Same Way
TTITLE12=Drifting
TTITLE13=The Supernatural
TTITLE14=Man of the World
TTITLE15=Rattlesnake Shake
EXTD=
EXTT0=
EXTT1=
EXTT2=
EXTT3=
EXTT4=
EXTT5=
EXTT6=
EXTT7=
EXTT8=
EXTT9=
EXTT10=
EXTT11=
EXTT12=
EXTT13=
EXTT14=
EXTT15=
PLAYORDER=
